<svg width="24" height="24" viewBox="0 0 24 24" fill="none" xmlns="http://www.w3.org/2000/svg">
<g clip-path="url(#clip0)">
<path d="M12 24C18.6274 24 24 18.6274 24 12C24 5.37258 18.6274 0 12 0C5.37258 0 0 5.37258 0 12C0 18.6274 5.37258 24 12 24Z" fill="white"/>
<path d="M12 0C7.24242 0 3.13167 2.76867 1.19067 6.78263H22.8092C20.8682 2.76867 16.7574 0 12 0Z" fill="#FF9811"/>
<path d="M12 24C16.7574 24 20.8682 21.2314 22.8092 17.2174H1.19067C3.13167 21.2314 7.24242 24 12 24Z" fill="#6DA544"/>
<path d="M11.9999 7.82605C9.69497 7.82605 7.82617 9.69485 7.82617 11.9998C7.82617 14.3048 9.69497 16.1735 11.9999 16.1735C14.3049 16.1735 16.1737 14.3048 16.1737 11.9998C16.1737 9.69485 14.3049 7.82605 11.9999 7.82605ZM14.3647 14.7826C14.3028 14.7061 14.1908 14.6919 14.1118 14.7524C14.0329 14.8129 14.0176 14.9249 14.0757 15.0046C13.9139 15.1165 13.7432 15.2157 13.564 15.3005C13.524 15.2098 13.4193 15.167 13.3272 15.2052C13.2354 15.2435 13.1912 15.3478 13.2274 15.44C13.0434 15.5057 12.8528 15.5572 12.6562 15.5927C12.6413 15.495 12.5509 15.4264 12.4524 15.4393C12.354 15.4522 12.2848 15.5416 12.2952 15.6397C12.1978 15.6473 12.099 15.6515 11.9996 15.6515C11.9001 15.6515 11.8017 15.6473 11.7039 15.6397C11.7144 15.5416 11.6452 15.4522 11.5467 15.4393C11.4479 15.4264 11.3579 15.4946 11.3429 15.5927C11.1467 15.5572 10.9558 15.5057 10.7718 15.44C10.8076 15.3478 10.7638 15.2432 10.672 15.2052C10.5802 15.1673 10.4751 15.2101 10.4351 15.3005C10.256 15.2157 10.0852 15.1162 9.92348 15.0046C9.98157 14.9249 9.96626 14.8129 9.88731 14.7524C9.8087 14.6919 9.69671 14.7061 9.63445 14.7826C9.55932 14.7187 9.48663 14.6519 9.41707 14.5823C9.3475 14.5127 9.28072 14.4401 9.21673 14.3649C9.29324 14.303 9.3075 14.191 9.24699 14.1121C9.18647 14.0331 9.07447 14.0178 8.99482 14.0759C8.88283 13.9142 8.7837 13.7434 8.69883 13.5643C8.78961 13.5243 8.83239 13.4196 8.79413 13.3274C8.75588 13.2356 8.65153 13.1914 8.55936 13.2276C8.49362 13.0436 8.44215 12.853 8.40667 12.6565C8.50441 12.6415 8.57292 12.5511 8.56006 12.4527C8.54719 12.3542 8.4578 12.285 8.35972 12.2954C8.35207 12.1981 8.34789 12.0993 8.34789 11.9998C8.34789 11.9003 8.35207 11.8019 8.35972 11.7042C8.4578 11.7146 8.54719 11.6454 8.56006 11.5469C8.57292 11.4482 8.50475 11.3581 8.40667 11.3431C8.44215 11.147 8.49362 10.956 8.55936 10.772C8.65153 10.8078 8.75622 10.764 8.79413 10.6722C8.83205 10.5804 8.78927 10.4753 8.69883 10.4353C8.7837 10.2562 8.88317 10.0854 8.99482 9.92371C9.07447 9.98179 9.18647 9.96649 9.24699 9.88753C9.3075 9.80893 9.29324 9.69693 9.21673 9.63467C9.28072 9.55955 9.3475 9.48685 9.41707 9.41729C9.48663 9.34773 9.55932 9.28095 9.63445 9.21695C9.69636 9.29347 9.80836 9.30773 9.88731 9.24721C9.96626 9.18669 9.98157 9.0747 9.92348 8.99505C10.0852 8.88305 10.256 8.78393 10.4351 8.69906C10.4751 8.78984 10.5798 8.83262 10.672 8.79436C10.7638 8.7561 10.808 8.65176 10.7718 8.55959C10.9558 8.49385 11.1464 8.44237 11.3429 8.4069C11.3579 8.50463 11.4483 8.57315 11.5467 8.56028C11.6452 8.54741 11.7144 8.45803 11.7039 8.35994C11.8013 8.35229 11.9001 8.34812 11.9996 8.34812C12.099 8.34812 12.1975 8.35229 12.2952 8.35994C12.2848 8.45803 12.354 8.54741 12.4524 8.56028C12.5512 8.57315 12.6413 8.50498 12.6562 8.4069C12.8524 8.44237 13.0434 8.49385 13.2274 8.55959C13.1915 8.65176 13.2354 8.75645 13.3272 8.79436C13.419 8.83227 13.524 8.78949 13.564 8.69906C13.7432 8.78393 13.9139 8.8834 14.0757 8.99505C14.0176 9.0747 14.0329 9.18669 14.1118 9.24721C14.1904 9.30773 14.3024 9.29347 14.3647 9.21695C14.4398 9.28095 14.5125 9.34773 14.5821 9.41729C14.6516 9.48685 14.7184 9.55955 14.7824 9.63467C14.7059 9.69659 14.6916 9.80858 14.7522 9.88753C14.8127 9.96649 14.9247 9.98179 15.0043 9.92371C15.1163 10.0854 15.2154 10.2562 15.3003 10.4353C15.2095 10.4753 15.1668 10.58 15.205 10.6722C15.2433 10.764 15.3476 10.8082 15.4398 10.772C15.5055 10.956 15.557 11.1466 15.5925 11.3431C15.4947 11.3581 15.4262 11.4485 15.4391 11.5469C15.452 11.6454 15.5413 11.7146 15.6394 11.7042C15.6471 11.8015 15.6513 11.9003 15.6513 11.9998C15.6513 12.0993 15.6471 12.1977 15.6394 12.2954C15.5413 12.285 15.452 12.3542 15.4391 12.4527C15.4262 12.5514 15.4944 12.6415 15.5925 12.6565C15.557 12.8526 15.5055 13.0436 15.4398 13.2276C15.3476 13.1918 15.2429 13.2356 15.205 13.3274C15.1671 13.4192 15.2099 13.5243 15.3003 13.5643C15.2154 13.7434 15.116 13.9142 15.0043 14.0759C14.9247 14.0178 14.8127 14.0331 14.7522 14.1121C14.6916 14.1907 14.7059 14.3027 14.7824 14.3649C14.7184 14.4401 14.6516 14.5127 14.5821 14.5823C14.5125 14.6519 14.4398 14.7187 14.3647 14.7826Z" fill="#0052B4"/>
<path d="M12.5412 12.4884C12.5673 12.4596 12.591 12.4293 12.6122 12.3966L13.2021 12.8387L15.1623 13.8258L13.3273 12.6216L12.6494 12.3319C12.6671 12.2975 12.6821 12.262 12.6943 12.2248L13.3781 12.4989L15.5272 12.9451L13.4431 12.2571L12.7137 12.1524C12.7217 12.1149 12.7263 12.0763 12.728 12.0373L13.4605 12.125L15.6517 11.9997L13.4605 11.8745L12.7284 11.9625C12.7263 11.9232 12.7221 11.8846 12.7141 11.8474L13.4435 11.7427L15.5275 11.0547L13.3784 11.501L12.6946 11.7751C12.6824 11.7378 12.6675 11.702 12.6497 11.6679L13.3276 11.3782L15.1627 10.1741L13.2024 11.1612L12.6125 11.6032C12.5913 11.5705 12.5673 11.5399 12.5416 11.5114L13.1214 11.0558L14.5822 9.41794L12.9443 10.8787L12.4887 11.4586C12.4598 11.4325 12.4296 11.4088 12.3969 11.3876L12.839 10.7977L13.8261 8.83744L12.6219 10.6725L12.3322 11.3504C12.2978 11.3326 12.2623 11.3177 12.2251 11.3055L12.4991 10.6217L12.9454 8.47258L12.2574 10.5567L12.1527 11.286C12.1152 11.278 12.0766 11.2735 12.0376 11.2718L12.1249 10.5389L11.9997 8.34772L11.8745 10.5389L11.9625 11.2711C11.9232 11.2732 11.8846 11.2773 11.8473 11.2853L11.7427 10.556L11.0547 8.47189L11.5009 10.621L11.775 11.3048C11.7378 11.317 11.702 11.3319 11.6679 11.3497L11.3781 10.6718L10.174 8.83674L11.1611 10.797L11.6032 11.3869C11.5705 11.4081 11.5399 11.4321 11.5114 11.4579L11.0557 10.8781L9.41788 9.41724L10.8787 11.0551L11.4585 11.5107C11.4324 11.5396 11.4088 11.5699 11.3875 11.6025L10.7976 11.1605L8.83738 10.1734L10.6724 11.3775L11.3503 11.6672C11.3326 11.7017 11.3176 11.7371 11.3055 11.7744L10.6217 11.5003L8.47252 11.054L10.5566 11.742L11.286 11.8467C11.278 11.8843 11.2735 11.9229 11.2717 11.9618L10.5389 11.8745L8.34766 11.9997L10.5389 12.125L11.271 12.037C11.2731 12.0763 11.2773 12.1149 11.2853 12.1521L10.5559 12.2568L8.47183 12.9448L10.621 12.4985L11.3048 12.2244C11.3169 12.2617 11.3319 12.2975 11.3496 12.3316L10.6717 12.6213L8.83668 13.8254L10.797 12.8383L11.3868 12.3963C11.4081 12.4289 11.4321 12.4596 11.4578 12.4881L10.878 12.9437L9.41718 14.5816L11.055 13.1207L11.5107 12.5409C11.5395 12.567 11.5698 12.5907 11.6025 12.6119L11.1604 13.2018L10.1733 15.1621L11.3775 13.327L11.6672 12.6491C11.7016 12.6669 11.7371 12.6818 11.7743 12.694L11.5002 13.3778L11.054 15.5269L11.742 13.4428L11.8466 12.7135C11.8842 12.7215 11.9228 12.726 11.9618 12.7277L11.8745 13.4606L11.9997 15.6518L12.1249 13.4606L12.0369 12.7284C12.0762 12.7263 12.1148 12.7222 12.152 12.7142L12.2567 13.4435L12.9447 15.5276L12.4985 13.3785L12.2244 12.6947C12.2616 12.6825 12.2974 12.6675 12.3315 12.6498L12.6212 13.3277L13.8254 15.1628L12.8383 13.2025L12.3962 12.6126C12.4289 12.5914 12.4595 12.5674 12.488 12.5416L12.9437 13.1214L14.5815 14.5823L13.1207 12.9444L12.5412 12.4884Z" fill="#0052B4"/>
</g>
<defs>
<clipPath id="clip0">
<rect width="24" height="24" fill="white"/>
</clipPath>
</defs>
</svg>
